<svg xmlns="http://www.w3.org/2000/svg" width="22" height="23" viewBox="0 0 22 23"><path fill="#00838e" d="M115.888889,852 C116.563904,852 117.111111,852.554478 117.111111,853.238462 L117.111,854.476473 L118,854.476923 C120.209139,854.476923 122,856.291579 122,858.53007 L122,870.946853 C122,873.185344 120.209139,875 118,875 L104,875 C101.790861,875 100,873.185344 100,870.946853 L100,858.53007 C100,856.291579 101.790861,854.476923 104,854.476923 L104.888,854.476473 L104.888889,853.238462 C104.888889,852.554478 105.436096,852 106.111111,852 C106.786126,852 107.333333,852.554478 107.333333,853.238462 L107.333,854.476473 L114.666,854.476473 L114.666667,853.238462 C114.666667,852.554478 115.213874,852 115.888889,852 Z M104.888,857.111018 L104,857.111469 C103.272284,857.111469 102.674248,857.674075 102.606409,858.393449 L102.6,858.53007 L102.6,870.946853 C102.6,871.684238 103.155229,872.29022 103.865171,872.358961 L104,872.365455 L118,872.365455 C118.727716,872.365455 119.325752,871.802849 119.393591,871.083474 L119.4,870.946853 L119.4,858.53007 C119.4,857.792685 118.844771,857.186703 118.134829,857.117962 L118,857.111469 L117.111,857.111018 L117.111111,857.838462 C117.111111,858.522445 116.563904,859.076923 115.888889,859.076923 C115.213874,859.076923 114.666667,858.522445 114.666667,857.838462 L114.666,857.111018 L107.333,857.111018 L107.333333,857.838462 C107.333333,858.522445 106.786126,859.076923 106.111111,859.076923 C105.436096,859.076923 104.888889,858.522445 104.888889,857.838462 L104.888,857.111018 Z M107.333333,866.76021 L107.433333,866.861538 L107.433333,869.338462 L107.333333,869.43979 L104.888889,869.43979 L104.788889,869.338462 L104.788889,866.861538 L104.888889,866.76021 L107.333333,866.76021 Z M112.222222,866.76021 L112.322222,866.861538 L112.322222,869.338462 L112.222222,869.43979 L109.777778,869.43979 L109.677778,869.338462 L109.677778,866.861538 L109.777778,866.76021 L112.222222,866.76021 Z M117.111111,866.76021 L117.211111,866.861538 L117.211111,869.338462 L117.111111,869.43979 L114.666667,869.43979 L114.566667,869.338462 L114.566667,866.861538 L114.666667,866.76021 L117.111111,866.76021 Z M107.333333,861.806364 L107.433333,861.907692 L107.433333,864.384615 L107.333333,864.485944 L104.888889,864.485944 L104.788889,864.384615 L104.788889,861.907692 L104.888889,861.806364 L107.333333,861.806364 Z M112.222222,861.806364 L112.322222,861.907692 L112.322222,864.384615 L112.222222,864.485944 L109.777778,864.485944 L109.677778,864.384615 L109.677778,861.907692 L109.777778,861.806364 L112.222222,861.806364 Z M117.111111,861.806364 L117.211111,861.907692 L117.211111,864.384615 L117.111111,864.485944 L114.666667,864.485944 L114.566667,864.384615 L114.566667,861.907692 L114.666667,861.806364 L117.111111,861.806364 Z" transform="translate(-100 -852)"/></svg>